<svg width="31" height="31" fill="none" xmlns="http://www.w3.org/2000/svg"><circle cx="15.238" cy="15.238" r="15.238" fill="#F79A38"/><path d="M19.99 17.366c.4-.4.457-.971.114-1.542-.285-.457-.8-.686-1.37-.571a1.929 1.929 0 00-.686.342c-1.77 1.2-4.169 1.143-5.94-.057l-.342-.171c-.628-.286-1.257-.172-1.6.4-.4.57-.342 1.199.172 1.713.114.114.228.171.286.286l.057.057c.8.628 1.77 1.028 3.027 1.199l-.743.743-1.942 1.941c-.171.172-.4.457-.4.857 0 .514.286 1.028.8 1.257.171.114.343.114.514.114.286 0 .628-.114.857-.4l2.227-2.227.057-.057s.058 0 .058.057c.456.514.97.97 1.427 1.485l.686.685c.285.285.514.4.856.4.514.057 1.085-.286 1.314-.8a1.143 1.143 0 00-.286-1.37c-.57-.572-1.142-1.2-1.77-1.771l-.971-.971c.514-.057 1.085-.171 1.6-.4.856-.285 1.484-.685 1.998-1.2z" fill="#fff"/><path d="M15.078 15.767c2.456 0 4.455-1.942 4.455-4.398 0-1.2-.457-2.342-1.313-3.198-.857-.857-1.942-1.314-3.084-1.314-2.456 0-4.398 1.999-4.455 4.398 0 1.199.457 2.284 1.313 3.14.8.915 1.885 1.372 3.084 1.372zm-1.256-5.712c.343-.342.8-.514 1.256-.514 1.028 0 1.77.8 1.77 1.77 0 1.029-.799 1.771-1.77 1.771-1.028 0-1.77-.8-1.77-1.77 0-.457.171-.914.514-1.257z" fill="#fff"/><path d="M19.99 17.366c.4-.4.457-.971.114-1.542-.285-.457-.8-.686-1.37-.571a1.929 1.929 0 00-.686.342c-1.77 1.2-4.169 1.143-5.94-.057l-.342-.171c-.628-.286-1.257-.172-1.6.4-.4.57-.342 1.199.172 1.713.114.114.228.171.286.286l.057.057c.8.628 1.77 1.028 3.027 1.199l-.743.743-1.942 1.941c-.171.172-.4.457-.4.857 0 .514.286 1.028.8 1.257.171.114.343.114.514.114.286 0 .628-.114.857-.4l2.227-2.227.057-.057s.058 0 .058.057c.456.514.97.97 1.427 1.485l.686.685c.285.285.514.4.856.4.514.057 1.085-.286 1.314-.8a1.143 1.143 0 00-.286-1.37c-.57-.572-1.142-1.2-1.77-1.771l-.971-.971c.514-.057 1.085-.171 1.6-.4.856-.285 1.484-.685 1.998-1.2z" fill="#fff"/></svg>