<svg width="31" height="31" fill="none" xmlns="http://www.w3.org/2000/svg"><circle cx="15.238" cy="15.238" r="15.238" fill="url(#paint0_linear)"/><path d="M20.252 9.143h-9.266c-1.046 0-1.843.797-1.843 1.843v9.266c0 1.046.797 1.843 1.843 1.843h9.266c1.046 0 1.843-.797 1.843-1.843v-9.266c0-1.046-.797-1.843-1.843-1.843zm-4.633 10.362c2.142 0 3.886-1.694 3.886-3.736 0-.349-.05-.748-.15-1.046h1.096v5.28a.5.5 0 01-.498.498h-8.668a.5.5 0 01-.498-.498v-5.33h1.145c-.1.348-.15.697-.15 1.046-.049 2.092 1.695 3.786 3.837 3.786zm0-1.494c-1.395 0-2.491-1.096-2.491-2.442 0-1.345 1.096-2.44 2.49-2.44 1.396 0 2.492 1.095 2.492 2.44 0 1.395-1.096 2.441-2.491 2.441zm4.782-5.33a.553.553 0 01-.548.547h-1.395a.553.553 0 01-.548-.548v-1.345c0-.299.25-.548.548-.548h1.395c.3 0 .548.25.548.548v1.345z" fill="#fff"/><defs><linearGradient id="paint0_linear" x1="6.476" y1="27.048" x2="26.667" y2="6.095" gradientUnits="userSpaceOnUse"><stop stop-color="#EEA054"/><stop offset=".503" stop-color="#D64763"/><stop offset="1" stop-color="#B62A99"/></linearGradient></defs></svg>