<svg width="31" height="31" fill="none" xmlns="http://www.w3.org/2000/svg"><circle cx="15.238" cy="15.238" r="15.238" fill="#7294C7"/><path d="M22.71 19.136c0-.064-.064-.064-.064-.127-.253-.506-.822-1.139-1.581-1.834-.38-.317-.57-.57-.696-.696-.19-.253-.19-.443-.126-.696.063-.19.316-.506.759-1.075.253-.317.38-.506.569-.696.949-1.265 1.392-2.088 1.265-2.467l-.063-.063c-.063-.064-.127-.127-.253-.127-.127-.063-.316-.063-.506 0h-2.847l-.063.063c-.063.064-.063.064-.063.127-.253.696-.57 1.265-.886 1.898-.19.316-.38.632-.57.885-.189.253-.315.443-.442.57-.126.126-.253.19-.316.316-.063.063-.19.126-.19.063-.063 0-.126 0-.126-.063l-.19-.19c-.063-.063-.064-.19-.127-.316v-3.164c0-.062-.063-.189-.063-.252l-.19-.19c-.063-.063-.19-.063-.253-.126a5.679 5.679 0 00-1.138-.127c-1.012 0-1.708.063-1.961.19-.127.063-.253.126-.316.253-.127.126-.127.19-.064.19.316.063.57.19.696.38l.063.126c.063.063.063.19.127.38.063.189.063.379.063.632v1.012c0 .316-.063.506-.063.696 0 .19-.064.316-.127.38-.063.126-.063.189-.126.189 0 0 0 .063-.064.063-.063 0-.126.063-.253.063a.479.479 0 01-.252-.126.761.761 0 01-.317-.316 2.21 2.21 0 01-.38-.57c-.126-.253-.316-.506-.442-.885l-.127-.253c-.063-.127-.19-.38-.316-.696-.126-.316-.253-.57-.38-.886a.86.86 0 00-.19-.253h-.063s-.063-.063-.126-.063-.127-.063-.19-.063H7.465c-.253 0-.38.063-.443.126l-.063.064v.126c0 .063 0 .127.063.253.317.76.696 1.518 1.076 2.277.38.696.759 1.329 1.012 1.772.316.442.569.885.885 1.265.317.38.506.632.57.759l.253.253.19.19c.126.126.316.316.569.506.253.19.569.38.885.569.316.19.696.316 1.076.443.442.126.822.19 1.201.126h.95a.572.572 0 00.442-.19l.063-.063c0-.063.064-.063.064-.126v-.253c0-.253 0-.443.063-.633s.063-.316.126-.443a.872.872 0 01.19-.253l.127-.126h.063c.126-.064.316 0 .443.126.19.127.38.317.506.506.126.19.316.38.569.633.253.253.443.443.57.506l.189.126c.127.064.253.127.443.19s.316.063.443.063l2.15-.063c.19 0 .38-.063.506-.126.127-.064.19-.127.19-.253v-.253c-.126-.127-.126-.19-.126-.253z" fill="#fff"/></svg>