<svg width="31" height="31" fill="none" xmlns="http://www.w3.org/2000/svg"><circle cx="15.238" cy="15.238" r="15.238" fill="#F40000"/><path d="M21.877 14.41c0-.296-.05-.64-.05-1.034-.049-.394-.098-.789-.147-1.133-.099-.394-.247-.69-.542-.936a1.665 1.665 0 00-.936-.444c-1.133-.147-2.808-.197-5.073-.197-2.266 0-3.99.05-5.073.197-.345.05-.69.197-.936.444a1.966 1.966 0 00-.542.936 3.95 3.95 0 00-.148 1.133c-.05.394-.05.738-.05 1.034v2.266c0 .295.05.64.05 1.034.05.394.099.788.148 1.133.098.394.246.69.542.936.246.246.59.394.936.443 1.132.148 2.807.197 5.073.197 2.265 0 3.99-.05 5.073-.197.345-.05.69-.197.936-.443.246-.247.443-.542.542-.936.098-.345.147-.69.147-1.133.05-.394.05-.739.05-1.035V14.41zm-4.138 1.527l-3.89 2.413a.376.376 0 01-.247.099c-.099 0-.148 0-.246-.05a.517.517 0 01-.247-.443V13.08c0-.197.099-.345.247-.443a.447.447 0 01.492 0l3.891 2.413c.148.099.246.246.246.394 0 .148-.098.394-.246.493z" fill="#fff"/></svg>