<svg width="10" height="10" fill="none" xmlns="http://www.w3.org/2000/svg"><g clip-path="url(#clip0)" fill="#EC1C24"><path d="M6.876 6.303l-.34.195-.494-.885 2.375-2.066c.782-.68.905-1.414.386-2.31L8.334.432a.208.208 0 00-.36.208l.462.817c.417.721.331 1.247-.298 1.787L5.505 5.53l.68 1.172-.35.2 1.053 2.494a.942.942 0 001.34.444.943.943 0 00.283-1.38L6.876 6.304zm1.4 2.829a.526.526 0 01-.786.347.526.526 0 01-.216-.247l-.902-2.154.404-.232 1.414 1.87a.527.527 0 01.094.416h-.008z"/><path d="M8.286 2.399a.622.622 0 00-.065-.483L7.291.318a.64.64 0 00-.864-.233l-5.57 3.21a.636.636 0 00-.232.862l.925 1.599a.64.64 0 00.871.232L7.99 2.785a.625.625 0 00.296-.386zm-.402-.113a.218.218 0 01-.105.133L2.211 5.635a.221.221 0 01-.302-.081L.984 3.949a.22.22 0 01.08-.301L6.637.445a.221.221 0 01.302.08l.925 1.6a.22.22 0 01.02.161z"/></g><defs><clipPath id="clip0"><path fill="#fff" d="M0 0h10v10H0z"/></clipPath></defs></svg>