<svg width="10" height="10" fill="none" xmlns="http://www.w3.org/2000/svg"><path d="M4.275 9.113V7.177a.161.161 0 00-.162-.16H2.178a.161.161 0 00-.161.16v1.936a.16.16 0 00.16.161h1.936c.09 0 .162-.072.162-.161z" stroke="#E11439" stroke-width=".5"/><path d="M2.822 7.097v.887h.645v-.887m.808-.242V4.919a.161.161 0 00-.162-.16H2.178a.161.161 0 00-.161.16v1.936a.16.16 0 00.16.161h1.936c.09 0 .162-.072.162-.161z" stroke="#E11439" stroke-width=".5"/><path d="M2.822 4.839v.887h.645v-.887m.808-.242V2.66a.161.161 0 00-.162-.161H2.178a.161.161 0 00-.161.161v1.936a.16.16 0 00.16.161h1.936c.09 0 .162-.072.162-.161z" stroke="#E11439" stroke-width=".5"/><path d="M2.822 2.58v.888h.645V2.58m4.517 4.275V4.919a.161.161 0 00-.162-.16H5.887a.161.161 0 00-.161.16v1.936a.16.16 0 00.16.161h1.936c.09 0 .162-.072.162-.161z" stroke="#E11439" stroke-width=".5"/><path d="M6.532 4.758v.887h.645v-.887m.645 2.258H5.887a.161.161 0 00-.161.161v1.936a.16.16 0 00.16.161h1.936c.09 0 .162-.072.162-.161V7.177a.161.161 0 00-.162-.16z" stroke="#E11439" stroke-width=".5"/><path d="M6.532 7.097v.887h.645v-.887" stroke="#E11439" stroke-width=".5"/><path d="M1.049.726v8.548M8.951.726v8.548M.726.726h8.548M.726 9.274h8.548M1.21 1.37h7.742" stroke="#E11439" stroke-width=".5" stroke-linecap="round"/></svg>