<svg width="11" height="6" fill="none" xmlns="http://www.w3.org/2000/svg"><path d="M10.903 5.187c0-.039-.042-.039-.042-.078-.166-.314-.54-.706-1.038-1.137-.249-.197-.373-.353-.456-.432-.125-.157-.125-.274-.083-.431.041-.118.207-.314.498-.667.166-.196.249-.314.374-.431.622-.785.913-1.295.83-1.53l-.042-.04c-.041-.038-.083-.078-.166-.078a.48.48 0 00-.332 0H8.578l-.041.04c-.042.039-.042.039-.042.078-.166.431-.374.784-.581 1.177-.125.196-.25.392-.374.549-.124.157-.207.274-.29.353-.083.078-.166.117-.208.196-.041.039-.124.078-.124.039-.042 0-.083 0-.083-.04l-.125-.117c-.041-.04-.041-.118-.083-.196V.481c0-.04-.041-.118-.041-.157L6.46.207c-.041-.04-.125-.04-.166-.079A3.932 3.932 0 005.548.05c-.664 0-1.121.039-1.287.117-.083.04-.166.079-.208.157-.083.079-.083.118-.041.118.207.04.373.118.456.235l.042.079c.042.039.042.117.083.235.042.118.042.235.042.392v.628c0 .196-.042.313-.042.431s-.041.196-.083.235c-.042.079-.042.118-.083.118 0 0 0 .04-.042.04-.041 0-.083.038-.166.038a.322.322 0 01-.166-.078.487.487 0 01-.207-.196 1.367 1.367 0 01-.25-.353c-.082-.157-.207-.314-.29-.55l-.083-.156c-.041-.078-.124-.235-.207-.431-.083-.197-.166-.353-.25-.55a.546.546 0 00-.124-.156H2.6s-.041-.04-.083-.04c-.041 0-.083-.039-.124-.039H.898c-.166 0-.249.04-.29.079L.566.442V.52c0 .04 0 .079.042.157.207.47.457.941.706 1.412.249.431.498.824.664 1.098.207.275.373.55.581.785.208.235.332.392.374.47l.166.157.124.118c.083.078.208.196.374.313.166.118.373.236.58.353.208.118.458.197.707.275.29.078.54.118.788.078h.623a.385.385 0 00.29-.117l.042-.04c0-.039.042-.039.042-.078v-.157c0-.157 0-.274.041-.392.042-.118.042-.196.083-.274a.536.536 0 01.125-.157L7 4.442h.041c.083-.039.208 0 .29.079.125.078.25.196.333.313a2.9 2.9 0 00.373.393c.167.156.291.274.374.313l.125.079c.083.039.166.078.29.117a.84.84 0 00.29.04l1.412-.04a.82.82 0 00.332-.078c.083-.04.125-.078.125-.157v-.157c-.083-.078-.083-.117-.083-.157z" fill="#fff"/></svg>