<svg width="8" height="12" fill="none" xmlns="http://www.w3.org/2000/svg"><path d="M7.119 7.47c.262-.247.3-.601.075-.955-.188-.284-.525-.425-.9-.354-.15.035-.3.106-.45.212-1.161.744-2.736.708-3.897-.035l-.225-.107c-.413-.177-.825-.106-1.05.248-.262.354-.225.744.113 1.063.075.07.15.106.187.177l.038.035c.524.39 1.161.638 1.986.744l-.487.46-1.275 1.204c-.112.106-.262.283-.262.531 0 .319.187.638.525.78.112.07.225.07.337.07a.74.74 0 00.562-.248l1.462-1.38.038-.036s.037 0 .037.035c.3.319.637.602.937.92l.45.426c.187.177.337.248.562.248a.898.898 0 00.862-.496.682.682 0 00-.187-.85c-.375-.354-.75-.744-1.162-1.098l-.637-.602a3.767 3.767 0 001.049-.248c.562-.177.974-.424 1.312-.743z" fill="#fff"/><path d="M3.896 6.48c1.611 0 2.923-1.205 2.923-2.727 0-.744-.3-1.452-.862-1.983A2.925 2.925 0 003.933.955c-1.612 0-2.886 1.24-2.923 2.727 0 .744.3 1.416.862 1.947.524.567 1.236.85 2.024.85zM3.07 2.937c.225-.212.525-.318.825-.318.674 0 1.161.495 1.161 1.097 0 .638-.524 1.098-1.162 1.098-.674 0-1.161-.496-1.161-1.098 0-.283.112-.566.337-.779z" fill="#fff"/><path d="M7.119 7.47c.262-.247.3-.601.075-.955-.188-.284-.525-.425-.9-.354-.15.035-.3.106-.45.212-1.161.744-2.736.708-3.897-.035l-.225-.107c-.413-.177-.825-.106-1.05.248-.262.354-.225.744.113 1.063.075.07.15.106.187.177l.038.035c.524.39 1.161.638 1.986.744l-.487.46-1.275 1.204c-.112.106-.262.283-.262.531 0 .319.187.638.525.78.112.07.225.07.337.07a.74.74 0 00.562-.248l1.462-1.38.038-.036s.037 0 .037.035c.3.319.637.602.937.92l.45.426c.187.177.337.248.562.248a.898.898 0 00.862-.496.682.682 0 00-.187-.85c-.375-.354-.75-.744-1.162-1.098l-.637-.602a3.767 3.767 0 001.049-.248c.562-.177.974-.424 1.312-.743z" fill="#fff"/></svg>