<svg width="13" height="13" fill="none" xmlns="http://www.w3.org/2000/svg"><path d="M10.936.737H1.814C.784.737 0 1.477 0 2.45v8.614c0 .972.785 1.713 1.814 1.713h9.122c1.03 0 1.814-.74 1.814-1.713V2.45c0-.972-.785-1.713-1.814-1.713zm-4.561 9.632c2.109 0 3.825-1.574 3.825-3.473a3.12 3.12 0 00-.147-.973h1.079v4.91a.478.478 0 01-.49.462H2.108c-.246 0-.49-.185-.49-.463V5.877h1.127a3.343 3.343 0 00-.147.973c-.049 1.945 1.667 3.519 3.776 3.519zm0-1.39c-1.373 0-2.452-1.018-2.452-2.268 0-1.25 1.079-2.27 2.452-2.27s2.452 1.02 2.452 2.27c0 1.296-1.079 2.269-2.452 2.269zm4.708-4.954c0 .278-.245.51-.54.51H9.17c-.294 0-.54-.232-.54-.51v-1.25c0-.278.246-.51.54-.51h1.373c.295 0 .54.232.54.51v1.25z" fill="#fff"/></svg>