<svg width="10" height="7" fill="none" xmlns="http://www.w3.org/2000/svg"><path d="M9.357 2.496c0-.183-.033-.397-.033-.641a40.082 40.082 0 00-.097-.702c-.064-.245-.161-.428-.355-.58a1.12 1.12 0 00-.614-.275C7.514.206 6.415.175 4.928.175S2.31.206 1.6.298a1.12 1.12 0 00-.614.274 1.208 1.208 0 00-.356.58 2.322 2.322 0 00-.097.703 4.686 4.686 0 00-.032.641v1.405c0 .183.032.397.032.641.033.245.065.489.097.703.065.244.162.427.356.58.161.153.388.244.614.275.743.091 1.842.122 3.33.122 1.486 0 2.617-.03 3.329-.122a1.12 1.12 0 00.614-.275c.161-.153.29-.336.355-.58.065-.214.097-.428.097-.703.033-.244.033-.458.033-.64V2.496zm-2.716.947L4.088 4.939A.255.255 0 013.926 5c-.064 0-.097 0-.161-.03a.317.317 0 01-.162-.275V1.672c0-.122.065-.214.162-.275a.308.308 0 01.323 0L6.64 2.893c.097.061.162.153.162.245a.416.416 0 01-.162.305z" fill="#fff"/></svg>