<svg width="24" height="24" fill="none" xmlns="http://www.w3.org/2000/svg"><path d="M22.594 8.558v-2.23c0-1.163-.947-2.11-2.11-2.11H19.37L15.357.207l-.003-.002A.705.705 0 0014.87 0H4.921a.703.703 0 00-.703.703V4.22h-.703c-1.163 0-2.11.946-2.11 2.11v2.23A2.113 2.113 0 000 10.546v8.531c0 1.163.946 2.11 2.11 2.11h2.109v2.109c0 .388.315.703.703.703h14.156a.703.703 0 00.703-.703v-2.11h2.11A2.111 2.111 0 0024 19.077v-8.531c0-.917-.588-1.698-1.406-1.989zM19.78 5.625h.703c.388 0 .703.315.703.703v2.11H19.78V5.624zm-4.218-3.224l1.818 1.818h-1.819V2.4zm-9.938-.995h8.531v3.516c0 .388.315.703.703.703h3.516v2.813H5.625V1.405zM2.812 6.328c0-.388.316-.703.704-.703h.703v2.813H2.812v-2.11zm15.563 16.266H5.625v-7.032h12.75v7.032zm4.219-3.516a.704.704 0 01-.703.703h-2.11v-4.218h.703a.703.703 0 000-1.407H3.516a.703.703 0 000 1.406h.703v4.22h-2.11a.704.704 0 01-.703-.704v-8.531c0-.388.316-.703.703-.703h19.782c.387 0 .703.315.703.703v8.531z" fill="#BDBDBD"/><path d="M16.266 16.969H7.734a.703.703 0 100 1.406h8.532a.703.703 0 100-1.406zm0 2.812H7.734a.703.703 0 000 1.407h8.532a.703.703 0 100-1.407zM4.922 11.25H3.516a.703.703 0 000 1.406h1.406a.703.703 0 000-1.406z" fill="#BDBDBD"/></svg>